<?xml version="1.0" encoding="UTF-8" standalone="no"?>
<!DOCTYPE svg PUBLIC "-//W3C//DTD SVG 20010904//EN"
              "http://www.w3.org/TR/2001/REC-SVG-20010904/DTD/svg10.dtd">

<svg xmlns="http://www.w3.org/2000/svg"
     width="0.556667in" height="0.473333in"
     viewBox="0 0 167 142">
  <path id="Ruta #1"
        fill="white" stroke="white" stroke-width="1"
        d="M 73.36,12.00
           C 73.25,12.50 73.09,13.12 72.88,13.86
             72.66,14.60 72.39,15.42 72.08,16.31
             71.77,17.21 71.43,18.17 71.03,19.19
             70.64,20.21 70.23,21.27 69.80,22.36
             68.90,24.56 68.02,26.62 67.14,28.55
             66.27,30.48 65.44,32.15 64.62,33.56
             63.82,34.96 63.08,36.28 62.41,37.52
             61.74,38.76 61.08,39.89 60.44,40.92
             60.28,41.18 59.96,41.68 59.48,42.42
             59.02,43.16 58.47,44.02 57.86,44.98
             57.24,45.95 56.58,46.99 55.88,48.09
             55.18,49.19 54.52,50.22 53.89,51.19
             53.27,52.16 52.74,53.00 52.28,53.72
             51.82,54.44 51.52,54.92 51.39,55.16
             51.27,55.36 51.05,55.57 50.73,55.80
             50.43,56.02 50.09,56.22 49.70,56.41
             49.33,56.59 48.94,56.73 48.55,56.84
             48.15,56.95 47.81,57.00 47.53,57.00
             46.93,57.00 46.37,56.87 45.86,56.59
             45.36,56.32 44.91,55.95 44.52,55.47
             44.12,54.98 43.77,54.40 43.48,53.73
             43.20,53.07 42.98,52.33 42.81,51.52
             42.81,51.52 39.22,34.20 39.22,34.20
             38.60,35.17 37.88,36.28 37.06,37.52
             36.24,38.76 35.38,40.03 34.48,41.33
             33.59,42.63 32.69,43.92 31.80,45.19
             30.91,46.46 30.09,47.61 29.34,48.64
             27.23,51.57 25.29,54.11 23.52,56.27
             23.52,56.27 23.53,56.25 23.53,56.25
             21.61,58.64 20.19,59.84 19.27,59.84
             18.08,59.84 17.17,59.46 16.55,58.70
             15.92,57.95 15.46,56.95 15.16,55.67
             14.86,54.40 14.68,52.95 14.59,51.31
             14.51,49.68 14.40,47.98 14.27,46.22
             13.84,40.62 13.60,33.73 13.55,25.58
             13.55,25.39 13.52,24.98 13.47,24.33
             13.41,23.68 13.36,22.86 13.30,21.86
             13.30,21.86 13.30,21.88 13.30,21.88
             13.20,20.81 13.16,19.91 13.17,19.16
             13.18,18.41 13.23,17.80 13.33,17.34
             13.39,17.00 13.55,16.64 13.80,16.27
             14.05,15.89 14.34,15.55 14.69,15.25
             15.04,14.95 15.44,14.70 15.88,14.50
             16.31,14.29 16.75,14.19 17.19,14.19
             17.66,14.19 18.09,14.36 18.48,14.70
             18.88,15.05 19.23,15.57 19.53,16.28
             20.06,17.53 20.41,18.92 20.58,20.45
             20.63,20.96 20.66,21.65 20.69,22.52
             20.71,23.38 20.73,24.45 20.75,25.70
             20.77,26.95 20.80,28.41 20.84,30.08
             20.88,31.73 20.94,33.62 21.02,35.75
             21.09,37.75 21.13,39.51 21.16,41.02
             21.18,42.53 21.19,43.85 21.20,44.98
             21.21,46.11 21.23,47.06 21.25,47.84
             21.28,48.62 21.34,49.27 21.42,49.80
             22.77,48.08 24.02,46.45 25.17,44.92
             26.33,43.39 27.37,41.98 28.30,40.69
             29.22,39.40 30.04,38.23 30.75,37.20
             31.46,36.17 32.04,35.31 32.50,34.62
             33.25,33.54 34.04,32.31 34.88,30.92
             35.72,29.54 36.77,27.90 38.05,26.00
             38.21,25.76 38.43,25.52 38.70,25.28
             38.97,25.03 39.28,24.81 39.62,24.62
             39.97,24.43 40.33,24.27 40.70,24.16
             41.08,24.03 41.44,23.97 41.78,23.97
             42.38,23.97 42.91,24.30 43.41,24.95
             43.91,25.61 44.32,26.57 44.64,27.84
             44.67,27.99 44.74,28.33 44.84,28.86
             44.95,29.39 45.07,30.03 45.20,30.78
             45.34,31.53 45.48,32.34 45.64,33.20
             45.80,34.07 45.96,34.91 46.11,35.72
             46.27,36.52 46.40,37.25 46.52,37.91
             46.64,38.56 46.74,39.05 46.83,39.38
             47.42,42.02 47.88,44.12 48.19,45.69
             48.50,47.25 48.79,48.28 49.05,48.77
             50.10,47.37 51.14,45.86 52.17,44.23
             53.20,42.61 54.20,40.94 55.17,39.22
             56.14,37.49 57.07,35.75 57.97,33.98
             58.86,32.23 59.70,30.53 60.48,28.89
             61.27,27.23 61.99,25.56 62.62,23.91
             63.27,22.25 63.86,20.64 64.39,19.08
             64.92,17.51 65.38,16.02 65.78,14.61
             66.19,13.20 66.54,11.88 66.84,10.67
             66.91,10.46 67.05,10.21 67.30,9.91
             67.55,9.61 67.85,9.31 68.20,9.03
             68.55,8.75 68.94,8.51 69.36,8.31
             69.77,8.11 70.17,8.00 70.55,8.00
             72.00,8.00 72.88,8.53 73.17,9.58
             73.46,10.38 73.52,11.19 73.36,12.00 Z
           M 91.50,13.77
           C 91.44,14.12 91.28,14.54 91.03,15.03
             90.78,15.52 90.48,16.03 90.12,16.56
             89.77,17.09 89.39,17.63 88.98,18.17
             88.58,18.70 88.17,19.18 87.77,19.59
             87.36,20.01 86.99,20.35 86.66,20.61
             86.32,20.87 86.05,21.00 85.83,21.00
             85.52,21.00 85.14,20.95 84.67,20.84
             84.21,20.74 83.77,20.58 83.33,20.36
             82.90,20.14 82.55,19.88 82.27,19.56
             81.98,19.25 81.88,18.88 81.97,18.45
             82.03,18.14 82.13,17.87 82.27,17.64
             82.40,17.41 82.55,17.18 82.70,16.94
             82.87,16.70 83.02,16.43 83.17,16.14
             83.33,15.85 83.45,15.48 83.53,15.05
             83.63,14.51 83.82,13.99 84.08,13.50
             84.34,13.00 84.66,12.57 85.03,12.20
             85.41,11.84 85.83,11.55 86.30,11.33
             86.77,11.11 87.27,11.00 87.83,11.00
             88.09,11.00 88.45,11.02 88.92,11.05
             89.39,11.08 89.84,11.18 90.27,11.34
             90.69,11.51 91.04,11.78 91.31,12.16
             91.58,12.53 91.64,13.07 91.50,13.77 Z
           M 101.91,38.83
           C 101.61,39.26 101.16,39.81 100.55,40.48
             99.93,41.15 99.24,41.87 98.48,42.64
             97.72,43.40 96.94,44.17 96.12,44.94
             95.32,45.71 94.57,46.41 93.88,47.03
             91.60,49.07 89.49,50.85 87.55,52.36
             85.61,53.86 83.80,55.11 82.11,56.09
             80.43,57.08 78.88,57.81 77.45,58.28
             76.02,58.76 74.69,59.00 73.45,59.00
             72.29,59.00 71.30,58.77 70.48,58.30
             69.68,57.84 69.05,57.21 68.61,56.41
             68.17,55.61 67.91,54.66 67.83,53.58
             67.74,52.50 67.83,51.33 68.08,50.08
             68.27,49.09 68.52,48.01 68.81,46.84
             69.11,45.67 69.42,44.50 69.73,43.33
             70.05,42.16 70.38,41.07 70.72,40.05
             71.05,39.02 71.33,38.16 71.56,37.48
             71.69,37.17 71.80,36.82 71.91,36.44
             72.02,36.04 72.12,35.65 72.22,35.25
             72.32,34.84 72.41,34.46 72.50,34.11
             72.58,33.75 72.65,33.44 72.70,33.19
             72.75,32.92 72.94,32.50 73.27,31.94
             73.60,31.38 74.02,30.80 74.52,30.22
             75.02,29.62 75.61,29.11 76.27,28.67
             76.92,28.23 77.60,28.00 78.31,28.00
             79.46,28.00 80.31,28.23 80.88,28.70
             81.44,29.17 81.59,30.03 81.34,31.28
             81.29,31.53 81.14,31.95 80.89,32.53
             80.65,33.12 80.35,33.82 79.98,34.64
             79.62,35.45 79.22,36.36 78.78,37.36
             78.34,38.35 77.91,39.39 77.50,40.48
             77.08,41.57 76.70,42.67 76.34,43.78
             75.99,44.90 75.71,45.98 75.50,47.02
             75.35,47.73 75.26,48.40 75.22,49.02
             75.18,49.63 75.18,50.16 75.23,50.61
             75.29,51.05 75.38,51.39 75.52,51.64
             75.66,51.88 75.84,52.00 76.05,52.00
             76.85,52.00 77.70,51.87 78.61,51.59
             79.52,51.31 80.55,50.81 81.73,50.09
             82.92,49.38 84.30,48.39 85.89,47.12
             87.47,45.87 89.35,44.25 91.52,42.28
             92.27,41.61 92.97,40.98 93.61,40.41
             94.24,39.82 94.88,39.25 95.50,38.67
             96.13,38.10 96.79,37.50 97.47,36.86
             98.14,36.23 98.91,35.50 99.77,34.67
             99.97,34.45 100.24,34.29 100.56,34.17
             100.88,34.06 101.21,34.00 101.53,34.00
             101.75,34.00 101.97,34.04 102.20,34.11
             102.44,34.18 102.64,34.30 102.80,34.47
             102.95,34.64 103.06,34.87 103.12,35.17
             103.19,35.46 103.17,35.85 103.08,36.33
             103.00,36.67 102.88,37.06 102.70,37.48
             102.54,37.90 102.27,38.35 101.91,38.83 Z
           M 130.86,51.91
           C 130.77,52.37 130.54,52.78 130.17,53.16
             129.80,53.52 129.36,53.84 128.84,54.11
             128.32,54.38 127.77,54.59 127.19,54.73
             126.60,54.87 126.04,54.94 125.50,54.94
             124.38,54.94 123.18,54.75 121.89,54.36
             120.61,53.96 119.32,53.47 118.02,52.88
             116.71,52.27 115.42,51.62 114.14,50.91
             112.87,50.20 111.68,49.51 110.58,48.84
             110.25,48.67 109.88,48.45 109.47,48.20
             109.05,47.95 108.64,47.71 108.23,47.47
             107.84,47.23 107.47,47.02 107.14,46.83
             106.82,46.63 106.58,46.50 106.42,46.44
             106.08,46.67 105.66,46.96 105.16,47.31
             104.66,47.66 104.19,48.02 103.73,48.41
             103.27,48.78 102.86,49.15 102.50,49.52
             102.13,49.87 101.89,50.17 101.78,50.41
             101.66,50.99 101.54,51.53 101.39,52.03
             101.24,52.53 101.12,52.95 101.02,53.28
             100.71,54.17 100.44,54.91 100.20,55.52
             99.96,56.11 99.68,56.59 99.34,56.97
             99.01,57.33 98.60,57.59 98.11,57.75
             97.63,57.91 97.01,58.00 96.25,58.00
             95.64,58.00 95.18,57.94 94.84,57.83
             94.51,57.72 94.27,57.55 94.11,57.31
             93.96,57.07 93.89,56.77 93.91,56.39
             93.91,56.01 93.97,55.55 94.08,55.03
             94.17,54.59 94.35,53.96 94.61,53.12
             94.87,52.29 95.16,51.38 95.48,50.38
             95.82,49.38 96.16,48.35 96.52,47.30
             96.88,46.25 97.21,45.28 97.52,44.41
             97.95,43.11 98.41,41.76 98.89,40.38
             99.38,38.98 99.86,37.57 100.34,36.16
             100.83,34.73 101.30,33.30 101.75,31.88
             102.20,30.45 102.61,29.05 103.00,27.69
             103.14,27.17 103.32,26.53 103.53,25.77
             103.75,25.01 103.98,24.20 104.22,23.36
             104.46,22.51 104.71,21.63 104.97,20.73
             105.24,19.83 105.49,18.96 105.73,18.14
             105.97,17.32 106.20,16.58 106.42,15.92
             106.65,15.27 106.84,14.73 107.00,14.33
             107.12,13.91 107.35,13.51 107.67,13.11
             108.00,12.70 108.39,12.34 108.83,12.03
             109.27,11.72 109.75,11.47 110.25,11.28
             110.76,11.09 111.24,11.00 111.70,11.00
             112.19,11.00 112.62,11.11 112.98,11.31
             113.36,11.52 113.66,11.78 113.91,12.09
             114.14,12.41 114.32,12.73 114.44,13.08
             114.55,13.41 114.58,13.71 114.53,13.97
             114.29,15.17 113.80,16.86 113.08,19.05
             112.35,21.23 111.45,23.68 110.38,26.42
             109.82,27.87 109.30,29.26 108.81,30.59
             108.33,31.92 107.85,33.23 107.38,34.53
             106.91,35.84 106.43,37.16 105.95,38.50
             105.48,39.84 104.98,41.23 104.45,42.69
             106.69,40.75 108.75,38.89 110.62,37.11
             112.50,35.33 114.27,33.68 115.95,32.16
             117.14,31.07 118.28,30.06 119.38,29.11
             120.47,28.16 121.49,27.34 122.45,26.64
             123.41,25.95 124.29,25.39 125.09,24.98
             125.89,24.57 126.59,24.36 127.17,24.36
             127.69,24.36 128.10,24.45 128.41,24.61
             128.72,24.78 128.96,24.99 129.12,25.25
             129.30,25.51 129.41,25.79 129.44,26.09
             129.47,26.40 129.46,26.67 129.41,26.91
             129.35,27.19 128.99,27.68 128.31,28.39
             127.63,29.10 126.78,29.93 125.75,30.88
             124.73,31.81 123.58,32.82 122.31,33.89
             121.05,34.95 119.80,35.99 118.56,37.00
             117.32,38.01 116.16,38.95 115.09,39.81
             114.02,40.68 113.15,41.37 112.48,41.89
             113.20,42.33 114.04,42.83 115.00,43.39
             115.97,43.95 116.98,44.52 118.03,45.11
             119.09,45.70 120.16,46.29 121.23,46.86
             122.32,47.42 123.33,47.94 124.28,48.41
             125.23,48.87 126.08,49.24 126.83,49.53
             127.59,49.81 128.16,49.98 128.56,50.02
             129.61,50.12 130.29,50.32 130.58,50.62
             130.88,50.92 130.97,51.34 130.86,51.91 Z
           M 155.16,13.39
           C 155.12,13.57 155.03,13.84 154.88,14.22
             154.73,14.59 154.54,14.98 154.31,15.42
             154.09,15.85 153.86,16.27 153.61,16.69
             153.37,17.11 153.14,17.46 152.92,17.75
             152.71,18.06 152.39,18.36 151.95,18.64
             151.52,18.92 151.07,19.16 150.58,19.36
             150.10,19.56 149.62,19.71 149.16,19.83
             148.69,19.95 148.30,20.00 148.00,20.00
             147.60,20.00 147.30,19.95 147.08,19.86
             146.86,19.76 146.71,19.62 146.62,19.45
             146.54,19.28 146.50,19.08 146.52,18.86
             146.54,18.63 146.55,18.40 146.58,18.16
             146.59,18.12 146.59,18.03 146.59,17.89
             146.60,17.76 146.60,17.45 146.59,16.97
             146.57,16.79 146.54,16.64 146.50,16.50
             146.46,16.36 146.42,16.21 146.39,16.06
             146.36,15.91 146.34,15.73 146.33,15.52
             146.32,15.31 146.34,15.06 146.41,14.77
             146.48,14.40 146.68,14.00 147.02,13.56
             147.35,13.12 147.77,12.72 148.28,12.34
             148.80,11.96 149.38,11.64 150.02,11.39
             150.65,11.13 151.31,11.00 152.00,11.00
             152.21,11.00 152.49,11.07 152.86,11.22
             153.23,11.37 153.60,11.56 153.95,11.80
             154.32,12.03 154.62,12.28 154.86,12.56
             155.11,12.84 155.21,13.12 155.16,13.39 Z
           M 157.59,47.39
           C 157.53,47.73 157.33,48.16 157.00,48.69
             156.66,49.21 156.23,49.78 155.69,50.41
             155.14,51.02 154.49,51.67 153.73,52.34
             152.97,53.01 152.12,53.66 151.19,54.28
             150.68,54.62 150.05,55.00 149.31,55.44
             148.57,55.87 147.73,56.27 146.78,56.66
             145.83,57.03 144.80,57.35 143.67,57.61
             142.55,57.87 141.36,58.00 140.09,58.00
             138.49,58.00 137.18,57.70 136.16,57.09
             135.13,56.49 134.36,55.70 133.83,54.72
             133.30,53.73 133.00,52.62 132.91,51.38
             132.81,50.12 132.89,48.87 133.14,47.59
             133.32,46.71 133.55,45.78 133.84,44.80
             134.14,43.81 134.46,42.84 134.80,41.89
             135.14,40.95 135.49,40.02 135.84,39.12
             136.20,38.22 136.52,37.40 136.81,36.67
             137.10,35.95 137.35,35.32 137.55,34.81
             137.75,34.29 137.88,33.93 137.92,33.73
             138.02,33.27 138.17,32.76 138.39,32.22
             138.61,31.67 138.89,31.16 139.25,30.69
             139.61,30.21 140.05,29.81 140.55,29.48
             141.05,29.16 141.66,29.00 142.34,29.00
             143.06,29.00 143.67,29.10 144.17,29.30
             144.67,29.48 145.05,29.72 145.33,30.00
             145.61,30.28 145.80,30.59 145.89,30.91
             145.99,31.23 146.02,31.53 145.95,31.81
             145.87,32.24 145.68,32.79 145.38,33.45
             145.07,34.11 144.71,34.84 144.30,35.62
             143.96,36.27 143.60,36.98 143.22,37.75
             142.83,38.51 142.45,39.31 142.08,40.16
             141.70,41.00 141.36,41.88 141.06,42.78
             140.77,43.69 140.52,44.62 140.33,45.56
             140.19,46.25 140.08,46.98 139.98,47.73
             139.90,48.48 139.89,49.18 139.97,49.81
             140.04,50.45 140.23,50.98 140.55,51.39
             140.86,51.80 141.35,52.00 142.02,52.00
             142.70,52.00 143.43,51.92 144.19,51.75
             144.96,51.59 145.73,51.37 146.50,51.11
             147.27,50.85 148.01,50.54 148.72,50.19
             149.43,49.84 150.06,49.47 150.62,49.09
             151.83,48.28 152.90,47.56 153.83,46.94
             154.77,46.31 155.58,46.00 156.27,46.00
             156.85,46.00 157.23,46.16 157.41,46.48
             157.58,46.81 157.64,47.11 157.59,47.39 Z" />
	<path id="Ruta"
        fill="white" stroke="white" stroke-width="1"
        d="M 28.94,128.00
           C 28.94,128.00 27.58,83.00 27.58,83.00
             27.58,83.00 36.27,83.00 36.27,83.00
             36.27,83.00 36.45,107.59 36.45,107.59
             36.45,109.19 36.42,110.95 36.36,112.89
             36.30,114.83 36.18,116.62 36.02,118.25
             36.02,118.25 36.27,118.25 36.27,118.25
             36.84,116.62 37.47,114.86 38.17,112.98
             38.88,111.11 39.50,109.52 40.05,108.22
             40.05,108.22 51.20,83.00 51.20,83.00
             51.20,83.00 59.39,83.00 59.39,83.00
             59.39,83.00 60.00,108.22 60.00,108.22
             60.04,108.94 60.05,109.87 60.03,111.00
             60.01,112.14 59.98,113.34 59.94,114.62
             59.89,115.91 59.84,117.12 59.77,118.25
             59.77,118.25 60.00,118.25 60.00,118.25
             60.54,116.53 61.18,114.67 61.92,112.67
             62.67,110.67 63.33,108.96 63.91,107.53
             63.91,107.53 73.89,83.00 73.89,83.00
             73.89,83.00 83.25,83.00 83.25,83.00
             83.25,83.00 63.66,128.00 63.66,128.00
             63.66,128.00 53.19,128.00 53.19,128.00
             53.19,128.00 52.69,107.55 52.69,107.55
             52.64,105.75 52.61,104.23 52.59,103.02
             52.57,101.80 52.56,100.71 52.56,99.75
             52.56,98.78 52.58,97.77 52.62,96.72
             52.62,96.72 52.38,96.72 52.38,96.72
             51.30,100.07 50.16,103.14 48.97,105.91
             48.97,105.91 39.17,128.00 39.17,128.00
             39.17,128.00 28.94,128.00 28.94,128.00 Z
           M 92.12,128.50
           C 88.16,128.50 84.93,127.43 82.45,125.28
             79.97,123.14 78.73,119.86 78.73,115.45
             78.73,112.61 79.13,109.88 79.94,107.27
             80.74,104.64 81.94,102.30 83.53,100.23
             85.12,98.17 87.10,96.54 89.45,95.33
             91.80,94.11 94.54,93.50 97.64,93.50
             101.40,93.50 104.23,94.35 106.12,96.05
             108.03,97.73 108.98,99.89 108.98,102.52
             108.98,105.98 107.38,108.76 104.17,110.86
             100.97,112.95 96.09,114.00 89.52,114.00
             89.52,114.00 87.97,114.00 87.97,114.00
             87.93,114.24 87.91,114.45 87.91,114.64
             87.91,114.82 87.91,115.01 87.91,115.20
             87.91,116.96 88.42,118.37 89.45,119.41
             90.48,120.44 91.97,120.95 93.92,120.95
             95.69,120.95 97.30,120.77 98.75,120.41
             100.20,120.03 101.91,119.39 103.91,118.48
             103.91,118.48 103.91,125.69 103.91,125.69
             102.12,126.62 100.31,127.33 98.47,127.80
             96.63,128.27 94.52,128.50 92.12,128.50 Z
           M 88.95,108.00
           C 88.95,108.00 90.33,108.00 90.33,108.00
             93.84,108.00 96.36,107.51 97.91,106.52
             99.46,105.53 100.23,104.38 100.23,103.08
             100.23,101.36 99.18,100.50 97.08,100.50
             95.92,100.50 94.80,100.82 93.70,101.45
             92.61,102.09 91.63,102.97 90.78,104.09
             89.94,105.21 89.33,106.51 88.95,108.00 Z
           M 129.47,128.50
           C 127.32,128.50 125.58,128.05 124.23,127.14
             122.89,126.23 121.85,125.02 121.11,123.53
             121.11,123.53 120.86,123.53 120.86,123.53
             120.86,123.53 119.12,128.00 119.12,128.00
             119.12,128.00 112.11,128.00 112.11,128.00
             112.11,128.00 122.09,80.00 122.09,80.00
             122.09,80.00 131.22,80.00 131.22,80.00
             131.22,80.00 129.36,89.23 129.36,89.23
             129.19,90.10 128.96,91.11 128.67,92.27
             128.38,93.42 128.07,94.59 127.73,95.77
             127.41,96.95 127.10,97.95 126.81,98.78
             126.81,98.78 127.06,98.78 127.06,98.78
             128.13,97.39 129.31,96.16 130.59,95.09
             131.88,94.03 133.55,93.50 135.61,93.50
             137.22,93.50 138.77,93.90 140.23,94.70
             141.70,95.51 142.89,96.81 143.80,98.61
             144.70,100.40 145.16,102.78 145.16,105.75
             145.16,108.51 144.79,111.23 144.05,113.91
             143.30,116.59 142.25,119.03 140.89,121.23
             139.52,123.45 137.88,125.21 135.95,126.53
             134.04,127.84 131.88,128.50 129.47,128.50 Z
           M 127.92,120.95
           C 129.04,120.95 130.08,120.52 131.05,119.66
             132.02,118.78 132.88,117.64 133.59,116.22
             134.32,114.80 134.89,113.23 135.30,111.48
             135.71,109.75 135.92,108.01 135.92,106.27
             135.92,102.79 134.60,101.05 131.95,101.05
             130.46,101.05 129.20,101.57 128.17,102.62
             127.14,103.68 126.29,105.01 125.62,106.61
             124.97,108.20 124.48,109.83 124.17,111.48
             123.86,113.14 123.70,114.56 123.70,115.73
             123.70,117.31 124.08,118.57 124.84,119.53
             125.61,120.48 126.64,120.95 127.92,120.95 Z" />
	<path id="Selección"
        fill="none" stroke="white" stroke-width="4"
        d="M 0.00,0.00
           C 0.00,0.00 167.00,0.00 167.00,0.00
             167.00,0.00 167.00,142.00 167.00,142.00
             167.00,142.00 0.00,142.00 0.00,142.00
             0.00,142.00 0.00,0.00 0.00,0.00 Z" />
	<path id="Sin nombre"
        fill="none" stroke="white" stroke-width="4"
        d="M 6.50,63.50
           C 16.00,71.75 23.00,73.00 31.25,70.50
             39.50,68.00 44.25,62.00 56.25,69.00
             68.25,76.00 73.25,74.25 79.25,69.50
             85.25,64.75 95.00,65.75 100.50,71.00
             106.00,76.25 116.50,70.00 118.75,67.25
             121.00,64.50 135.00,68.50 136.50,71.75
             138.00,75.00 151.25,70.25 156.75,65.00" />
</svg>
